<svg width="20" height="20" viewBox="0 0 20 20" fill="none" xmlns="http://www.w3.org/2000/svg">
<path d="M7.5 10C7.5 9.61175 7.5 9.41758 7.56343 9.26442C7.64801 9.06025 7.81024 8.898 8.01443 8.81342C8.16758 8.75 8.36175 8.75 8.75 8.75H11.25C11.6382 8.75 11.8324 8.75 11.9856 8.81342C12.1897 8.898 12.352 9.06025 12.4366 9.26442C12.5 9.41758 12.5 9.61175 12.5 10C12.5 10.3882 12.5 10.5824 12.4366 10.7356C12.352 10.9397 12.1897 11.102 11.9856 11.1866C11.8324 11.25 11.6382 11.25 11.25 11.25H8.75C8.36175 11.25 8.16758 11.25 8.01443 11.1866C7.81024 11.102 7.64801 10.9397 7.56343 10.7356C7.5 10.5824 7.5 10.3882 7.5 10Z" stroke="#222222" stroke-width="1.6"/>
<path d="M17.0834 5.83301V10.833C17.0834 13.9757 17.0834 15.5471 16.107 16.5233C15.1308 17.4997 13.5594 17.4997 10.4167 17.4997H9.58335C6.44065 17.4997 4.86931 17.4997 3.893 16.5233C2.91669 15.5471 2.91669 13.9757 2.91669 10.833V5.83301" stroke="#222222" stroke-width="1.6" stroke-linecap="round"/>
<path d="M1.66669 4.16667C1.66669 3.38099 1.66669 2.98816 1.91076 2.74408C2.15485 2.5 2.54768 2.5 3.33335 2.5H16.6667C17.4523 2.5 17.8452 2.5 18.0893 2.74408C18.3333 2.98816 18.3333 3.38099 18.3333 4.16667C18.3333 4.95234 18.3333 5.34517 18.0893 5.58926C17.8452 5.83333 17.4523 5.83333 16.6667 5.83333H3.33335C2.54768 5.83333 2.15485 5.83333 1.91076 5.58926C1.66669 5.34517 1.66669 4.95234 1.66669 4.16667Z" stroke="#222222" stroke-width="1.6"/>
</svg>
